<?xml version="1.0" encoding="utf-8"?>
<!-- Generator: Adobe Illustrator 18.0.0, SVG Export Plug-In . SVG Version: 6.00 Build 0)  -->
<!DOCTYPE svg PUBLIC "-//W3C//DTD SVG 1.1//EN" "http://www.w3.org/Graphics/SVG/1.1/DTD/svg11.dtd">
<svg version="1.1" id="Layer_1" xmlns:sketch="http://www.bohemiancoding.com/sketch/ns"
	 xmlns="http://www.w3.org/2000/svg" xmlns:xlink="http://www.w3.org/1999/xlink" x="0px" y="0px" viewBox="0 0 24 24"
	 enable-background="new 0 0 24 24" xml:space="preserve">
<title>Artboard 27</title>
<desc>Created with Sketch.</desc>
<path id="Imported-Layers" sketch:type="MSShapeGroup" fill="#8C8C8C" d="M16.9,6H7.1C3.7,6,1,8.7,1,12s2.7,6,6.1,6h1.4L9,17h6
	l0.5,1h1.4c3.4,0,6.1-2.7,6.1-6S20.3,6,16.9,6L16.9,6z M17,9c0.6,0,1,0.4,1,1s-0.4,1-1,1s-1-0.4-1-1C16,9.4,16.4,9,17,9L17,9z
	 M10.8,12.7H8.2v2.6H6.8v-2.6H4.2v-1.4h2.6V8.8h1.4v2.6h2.6V12.7L10.8,12.7z M15,13c-0.6,0-1-0.4-1-1c0-0.6,0.4-1,1-1s1,0.4,1,1
	S15.6,13,15,13L15,13z M17,15c-0.6,0-1-0.4-1-1c0-0.6,0.4-1,1-1s1,0.4,1,1S17.6,15,17,15L17,15z M19,13c-0.6,0-1-0.4-1-1
	c0-0.6,0.4-1,1-1s1,0.4,1,1S19.6,13,19,13L19,13z"/>
</svg>
