<?xml version="1.0" encoding="utf-8"?>
<!-- Generator: Adobe Illustrator 18.0.0, SVG Export Plug-In . SVG Version: 6.00 Build 0)  -->
<!DOCTYPE svg PUBLIC "-//W3C//DTD SVG 1.1//EN" "http://www.w3.org/Graphics/SVG/1.1/DTD/svg11.dtd">
<svg version="1.1" id="Layer_1" xmlns:sketch="http://www.bohemiancoding.com/sketch/ns"
	 xmlns="http://www.w3.org/2000/svg" xmlns:xlink="http://www.w3.org/1999/xlink" x="0px" y="0px" viewBox="0 0 24 24"
	 enable-background="new 0 0 24 24" xml:space="preserve">
<title>Artboard 27</title>
<desc>Created with Sketch.</desc>
<g id="App-info-page" sketch:type="MSPage">
	<g id="Artboard-27" sketch:type="MSArtboardGroup">
		<path id="Imported-Layers" sketch:type="MSShapeGroup" fill="#8C8C8C" d="M22,4c-9.4,0-10.2,6.1-10.2,9.5C10.9,11.1,8.5,8.9,2,9.2
			c0,0,0,8,7.9,8c0,0,0.5-2.6-3-5.2c0,0,4.4,0.9,4.4,6.1v1.9c0,0.5,0.4,0.9,0.9,0.9c0.5,0,0.9-0.4,0.9-0.9v-4.7c0-6.6,4.6-8,4.6-8
			c-3.3,3.3-3.3,6.6-3.3,6.6C22.5,13.9,22,4,22,4"/>
	</g>
</g>
</svg>
