<?xml version="1.0" encoding="utf-8"?>
<!-- Generator: Adobe Illustrator 18.0.0, SVG Export Plug-In . SVG Version: 6.00 Build 0)  -->
<!DOCTYPE svg PUBLIC "-//W3C//DTD SVG 1.1//EN" "http://www.w3.org/Graphics/SVG/1.1/DTD/svg11.dtd">
<svg version="1.1" id="Layer_1" xmlns:sketch="http://www.bohemiancoding.com/sketch/ns"
	 xmlns="http://www.w3.org/2000/svg" xmlns:xlink="http://www.w3.org/1999/xlink" x="0px" y="0px" viewBox="0 0 24 24"
	 enable-background="new 0 0 24 24" xml:space="preserve">
<title>Artboard 27</title>
<desc>Created with Sketch.</desc>
<g id="App-info-page" sketch:type="MSPage">
	<g id="Artboard-27" sketch:type="MSArtboardGroup">
		<path id="Imported-Layers" sketch:type="MSShapeGroup" fill="#8C8C8C" d="M15.7,11.1c1.6,0.5,3.5,0.2,4.8-1.1s1.9-3,1.2-4.7
			l-3.3,3.3l-2.9-3l3.3-3.3c-1.8-0.7-3.5-0.2-4.9,1.1c-1.3,1.3-1.6,3.1-1.2,4.7l-10,10.1c-0.9,0.9-0.9,2.2,0,3.1
			c0.9,0.9,2.2,0.9,3,0L15.7,11.1L15.7,11.1z M5.5,20.3c-0.5,0.5-1.3,0.5-1.8,0s-0.5-1.3,0-1.8C4.2,18,5,18,5.5,18.5
			C5.9,19,5.9,19.8,5.5,20.3L5.5,20.3z"/>
	</g>
</g>
</svg>
