<?xml version="1.0" encoding="utf-8"?>
<!-- Generator: Adobe Illustrator 18.0.0, SVG Export Plug-In . SVG Version: 6.00 Build 0)  -->
<!DOCTYPE svg PUBLIC "-//W3C//DTD SVG 1.1//EN" "http://www.w3.org/Graphics/SVG/1.1/DTD/svg11.dtd">
<svg version="1.1" id="Layer_1" xmlns:sketch="http://www.bohemiancoding.com/sketch/ns"
	 xmlns="http://www.w3.org/2000/svg" xmlns:xlink="http://www.w3.org/1999/xlink" x="0px" y="0px" viewBox="1 23 24 24"
	 enable-background="new 1 23 24 24" xml:space="preserve">
<title>Artboard 27</title>
<desc>Created with Sketch.</desc>
<path id="Fill-1" sketch:type="MSShapeGroup" fill="#8C8C8C" d="M14.6,43.4h-4.3c-0.3,0-0.6-0.3-0.6-0.6s0.3-0.6,0.6-0.6h4.3
	c0.3,0,0.6,0.3,0.6,0.6S14.9,43.4,14.6,43.4"/>
<path id="Fill-2" sketch:type="MSShapeGroup" fill="#8C8C8C" d="M12.5,46c-1.4,0-1.9-0.9-1.9-1.2c0-0.3,0.3-0.6,0.6-0.6h2.7
	c0.3,0,0.6,0.3,0.6,0.6C14.4,45.1,13.8,46,12.5,46"/>
<path fill="#8C8C8C" d="M12.5,24C8.4,24,5,27.4,5,31.5c0,2.7,1.4,5,3.5,6.4c0.5,0.4,0.9,1,0.9,1.7v0.5c0,0.6,0.4,1,0.9,1h4.3
	c0.5,0,0.9-0.5,0.9-1v-0.3c0-0.8,0.4-1.4,0.9-1.8c0.2-0.1,0.3-0.2,0.5-0.3c1.8-1.4,3-3.6,3-6.1C20,27.4,16.6,24,12.5,24z M14,34.7
	c-0.4-0.5-1-0.9-1.7-0.9c-0.7,0-1.3,0.4-1.7,0.9l-0.8-0.6c0.6-0.9,1.5-1.4,2.5-1.4c0.9,0,1.8,0.5,2.4,1.2L14,34.7z"/>
</svg>
