<?xml version="1.0" encoding="utf-8"?>
<!-- Generator: Adobe Illustrator 17.0.0, SVG Export Plug-In . SVG Version: 6.00 Build 0)  -->
<!DOCTYPE svg PUBLIC "-//W3C//DTD SVG 1.1//EN" "http://www.w3.org/Graphics/SVG/1.1/DTD/svg11.dtd">
<svg version="1.1" id="Google_x2B_" xmlns="http://www.w3.org/2000/svg" xmlns:xlink="http://www.w3.org/1999/xlink" x="0px"
	 y="0px" width="29px" height="25px" viewBox="0 0 29 25" enable-background="new 0 0 29 25" xml:space="preserve">
<g>
	<rect x="11" y="13" width="12" height="1.5"/>
	<rect x="11" y="10" width="12" height="1.5"/>
	<rect x="11" y="16" width="12" height="1.5"/>
	<rect x="6" y="13" width="3" height="1.5"/>
	<polygon points="9,17.438 9,16 6,16 6.072,17.438 	"/>
	<rect x="6" y="10" width="3" height="1.5"/>
	<path d="M0,2v21h29V2H0z M11.5,4.5h2V6h-2V4.5z M7.5,4.5h2V6h-2V4.5z M3.5,4.5h2V6h-2V4.5z M25.5,20.5h-22v-13h22V20.5z"/>
</g>
</svg>
