<?xml version="1.0" encoding="utf-8"?>
<!-- Generator: Adobe Illustrator 18.0.0, SVG Export Plug-In . SVG Version: 6.00 Build 0)  -->
<!DOCTYPE svg PUBLIC "-//W3C//DTD SVG 1.1//EN" "http://www.w3.org/Graphics/SVG/1.1/DTD/svg11.dtd">
<svg version="1.1" id="Layer_1" xmlns:sketch="http://www.bohemiancoding.com/sketch/ns"
	 xmlns="http://www.w3.org/2000/svg" xmlns:xlink="http://www.w3.org/1999/xlink" x="0px" y="0px" viewBox="0 0 24 24"
	 enable-background="new 0 0 24 24" xml:space="preserve">
<title>Artboard 27</title>
<desc>Created with Sketch.</desc>
<path id="Imported-Layers-2" sketch:type="MSShapeGroup" fill="#8C8C8C" d="M9.7,2.3L10,2.5l1.4,0.2l0.6-0.1l1.2,0.1L13.5,3
	l-0.8-0.1l-0.9,0.4l0.2,0.6l0.9,0.4l0.1-0.8l0.8-0.1l1.2,1.1L15.4,5l0.2,0.3l-0.9,0.4l-1.4,0.6l-0.1,0.6l-0.9,0.9l0,0.8l-0.3,0
	l-0.1-0.7l-0.5-0.2L9.8,7.8L9.2,9l0.5,0.6l0.9-0.5l0.1,0.8l0.3,0.3l0.6,0.7l0,0.9l1.1,0.3l0.8-0.6l0.4,0.1l1.4,0.5l1.9,0.7l0.4,1
	l1.4,0.7l0.3,1.2l-0.9,1l-1.1,1.2l-1.2,0.6l-1.2,0.8l-1.6,1l-0.9,0.9l-0.3-0.3l0.7-1.8l0.2-2.1l-1.5-1.4l0-1.2l0.4-0.5l0.5-1.4
	l-1-0.5l-0.6-1l-1-0.4L8.1,9.7L7.5,7.9L7.2,8.8L6.7,7.4l0.2-2.2l0.8-0.7L7.4,4L9.7,2.3L6.9,3.4C4,5.2,2,8.4,2,12c0,5.5,4.5,10,10,10
	c5.5,0,10-4.5,10-10c0-5.5-4.5-10-10-10C11.2,2,10.4,2.1,9.7,2.3z"/>
</svg>
